<svg width="19" height="19" viewBox="0 0 19 19" fill="none" xmlns="http://www.w3.org/2000/svg">
<path d="M10.9375 7.4375V17.9375H2.1875C1.72337 17.9375 1.27825 17.7531 0.950063 17.4249C0.621874 17.0967 0.4375 16.6516 0.4375 16.1875V7.4375H10.9375Z" fill="white" stroke="white" stroke-width="0.875"/>
<path d="M17.9375 7.4375V16.1875C17.9375 16.6516 17.7531 17.0967 17.4249 17.4249C17.0967 17.7531 16.6516 17.9375 16.1875 17.9375H12.6875V7.4375H17.9375Z" fill="white" stroke="white" stroke-width="0.875"/>
<path d="M17.9375 2.1875V5.6875H0.4375V2.1875C0.4375 1.72337 0.621874 1.27825 0.950063 0.950063C1.27825 0.621874 1.72337 0.4375 2.1875 0.4375H16.1875C16.6516 0.4375 17.0967 0.621874 17.4249 0.950063C17.7531 1.27825 17.9375 1.72337 17.9375 2.1875Z" fill="white" stroke="white" stroke-width="0.875"/>
</svg>
